<svg id="Layer_1" xmlns="http://www.w3.org/2000/svg" viewBox="0 0 512 512"><style>.st0{fill:#f7434c}.st1{fill:#db2e37}.st2{fill:#ffdb57}.st3{fill:#f5ba3d}.st4{fill:#ef9325}</style><path class="st0" d="M469.2 227.7H42.8c-4.5 0-8.1 3.6-8.1 8.1v250.8c0 4.5 3.6 8.1 8.1 8.1h426.3c4.5 0 8.1-3.6 8.1-8.1V235.8c0-4.5-3.6-8.1-8-8.1z"/><path class="st1" d="M469.2 227.7H42.8c-4.5 0-8.1 3.6-8.1 8.1v32.3h442.5v-32.3c0-4.5-3.6-8.1-8-8.1z"/><path class="st2" d="M297.3 227.7h-82.6c-4.5 0-8.1 3.6-8.1 8.1v250.8c0 4.5 3.6 8.1 8.1 8.1h82.6c4.5 0 8.1-3.6 8.1-8.1V235.8c0-4.5-3.6-8.1-8.1-8.1z"/><path class="st3" d="M297.3 227.7h-82.6c-4.5 0-8.1 3.6-8.1 8.1V268h98.8v-32.2c0-4.5-3.6-8.1-8.1-8.1z"/><path class="st2" d="M453.4 78.4c-7.9-20.7-20.4-40.8-33.5-54-4.8-4.8-11.2-7.3-18.5-7.1-24.3.6-63.8 31-117.6 90.5-1.3 1.5-2.1 3.4-2.1 5.4V156c0 4.5 3.6 8.1 8.1 8.1h124.4c27.7 0 39.1-13.5 43.9-24.8 6.3-15.1 4.6-36.7-4.7-60.9z"/><path class="st4" d="M458 92.5c-.2-.8-.6-1.6-1.1-2.3-12.2-18.5-38.6-11.6-58.6-2.5-58 26.3-82 62.5-83 64-1.6 2.5-1.7 5.7-.3 8.3 1.4 2.6 4.1 4.2 7.1 4.2h92c17.6 0 30.7-5.4 38.9-16.1 9.8-12.8 11.5-32 5-55.6z"/><path class="st2" d="M228.1 107.8c-53.7-59.5-93.3-90-117.6-90.5-7.3-.2-13.8 2.3-18.5 7.1-13 13.1-25.5 33.3-33.5 54-9.3 24.2-10.9 45.9-4.7 60.9 4.7 11.3 16.1 24.8 43.9 24.8h124.4c4.5 0 8.1-3.6 8.1-8.1v-42.8c0-2-.7-3.9-2.1-5.4z"/><path class="st4" d="M196.6 151.6c-1-1.5-25-37.7-83-64-20-9-46.4-15.9-58.6 2.5-.5.7-.8 1.5-1.1 2.3-6.4 23.7-4.7 42.9 5 55.5 8.2 10.7 21.2 16.1 38.9 16.1h92c3 0 5.7-1.6 7.1-4.2 1.4-2.5 1.3-5.7-.3-8.2z"/><path class="st3" d="M289.9 97.2h-67.7c-4.5 0-8.1 3.6-8.1 8.1V156c0 4.5 3.6 8.1 8.1 8.1h67.7c4.5 0 8.1-3.6 8.1-8.1v-50.8c-.1-4.4-3.7-8-8.1-8z"/><path class="st0" d="M503.9 147.9H8.1c-4.5 0-8.1 3.6-8.1 8.1v79.8c0 4.5 3.6 8.1 8.1 8.1h495.8c4.5 0 8.1-3.6 8.1-8.1V156c0-4.4-3.6-8.1-8.1-8.1z"/><path class="st2" d="M193.9 147.9h124.2v95.9H193.9z"/></svg>