<svg xmlns="http://www.w3.org/2000/svg" viewBox="0 0 512 512" width="512" height="512"><path d="M482 138.958H290.32c-5.523 0-10 4.477-10 10s4.477 10 10 10H482l.063.003-126.851 104.353c-4.265 3.509-4.878 9.811-1.37 14.075a9.977 9.977 0 0 0 7.729 3.647 9.96 9.96 0 0 0 6.347-2.277L492 176.685v270.59l-121.177-99.687c-4.265-3.507-10.567-2.895-14.076 1.37-3.509 4.265-2.896 10.566 1.37 14.075l123.945 101.964c-.021 0-.041.003-.062.003H30l-.063-.003 126.851-104.353c4.265-3.509 4.878-9.811 1.37-14.076-3.508-4.264-9.81-4.877-14.076-1.369L20 447.274V176.685l121.177 99.686a9.96 9.96 0 0 0 6.347 2.277 9.983 9.983 0 0 0 7.729-3.647c3.509-4.265 2.896-10.566-1.37-14.075L29.938 158.962l.063-.003h189.654c5.523 0 10-4.477 10-10s-4.477-10-10-10H30c-16.542 0-30 13.458-30 30V455c0 16.542 13.458 30 30 30h452c16.542 0 30-13.458 30-30V168.958c0-16.541-13.458-30-30-30z" fill="#FFF"/><path d="M256.125 138.958H256c-5.523 0-10 4.477-10 10s4.477 10 10 10h.125c5.523 0 10-4.477 10-10s-4.477-10-10-10zm31.854 99.035c-11.536 0-22.771 3.869-31.979 10.837-9.208-6.967-20.443-10.836-31.979-10.836-29.787 0-54.021 25.027-54.021 55.789 0 20.801 14.004 42.937 41.625 65.795 19.512 16.148 38.766 26.745 39.576 27.188a9.995 9.995 0 0 0 9.6 0c.81-.443 20.063-11.04 39.576-27.188C327.996 336.719 342 314.583 342 293.782c0-30.762-24.234-55.789-54.021-55.789zM256 366.475c-22.107-13.1-66-44.856-66-72.693 0-19.733 15.262-35.788 34.021-35.788 9.368 0 18.098 3.925 24.582 11.053a10.001 10.001 0 0 0 14.794 0c6.484-7.128 15.214-11.053 24.582-11.053 18.759 0 34.021 16.055 34.021 35.788 0 27.838-43.897 59.598-66 72.693zM256 27c-5.523 0-10 4.477-10 10v38.802c0 5.523 4.477 10 10 10s10-4.477 10-10V37c0-5.523-4.477-10-10-10zm80.992 27.088c-4.302-3.466-10.596-2.786-14.061 1.514l-29.668 36.829c-3.465 4.3-2.787 10.596 1.514 14.061a9.96 9.96 0 0 0 6.267 2.213 9.984 9.984 0 0 0 7.794-3.727l29.668-36.829c3.464-4.301 2.787-10.596-1.514-14.061zM218.787 92.657l-29.718-36.891c-3.465-4.301-9.759-4.979-14.061-1.514-4.301 3.465-4.979 9.76-1.514 14.061l29.718 36.891a9.98 9.98 0 0 0 7.794 3.727 9.96 9.96 0 0 0 6.267-2.213c4.301-3.465 4.979-9.76 1.514-14.061z" fill="#FFF"/></svg>