<svg xmlns="http://www.w3.org/2000/svg" viewBox="0 0 477.366 477.366" width="512" height="512"><g fill="#FFF"><path d="M19.89 452.503c-2.486 4.973 0 9.945 2.486 12.431 4.973 2.486 9.945 2.486 14.918 2.486l74.588-27.349c37.294 24.863 82.047 37.294 126.8 37.294 131.773 0 238.683-106.91 238.683-238.683S370.456 0 238.683 0 0 106.91 0 238.683c0 49.726 14.918 99.451 44.753 139.232L19.89 452.503zm4.973-216.306c0-119.342 96.965-213.82 213.82-213.82s213.82 96.965 213.82 213.82-96.965 213.82-213.82 213.82c-42.267 0-84.534-12.431-119.342-34.808-2.486-2.486-4.973-2.486-7.459-2.486h-4.973L49.724 435.1l19.89-57.184c2.486-4.973 0-7.459-2.486-12.431-27.347-37.296-42.265-82.049-42.265-129.288z"/><path d="M285.923 382.888c12.431 2.486 22.377 4.973 34.808 4.973 29.835 0 52.212-12.431 67.13-34.808 7.459-14.918 9.945-27.349 7.459-39.781-4.973-14.918-17.404-22.377-19.89-24.863l-37.294-19.89c-4.973-2.486-9.945-4.973-14.918-4.973-24.863 0-39.781 27.349-39.781 27.349s-2.486 2.486-7.459 2.486h-2.486c-37.294-12.431-64.643-47.239-77.075-64.643l-2.486-2.486c-9.945-7.459-12.431-7.459-2.486-17.404 19.89-17.404 14.918-37.294 9.945-44.753l-24.863-59.671c-2.486-4.973-12.431-12.431-22.377-12.431-12.431 0-27.349 7.459-44.753 24.863-42.267 42.267-9.945 106.91-9.945 106.91C146.691 348.08 280.95 380.401 285.923 382.888zM126.8 134.259c14.918-17.404 24.863-17.404 27.349-17.404l27.349 59.671c0 2.486 2.486 7.459-4.973 14.918-24.863 22.377-17.404 37.294-4.973 52.212l2.486 2.486c12.431 17.404 44.753 59.671 89.506 72.102h9.945c12.431 0 22.377-4.973 29.835-14.918 2.486-7.459 14.918-19.89 24.863-14.918l37.294 17.404s4.973 2.486 7.459 7.459c2.486 7.459-2.486 14.918-4.973 19.89-12.431 22.377-37.294 27.349-72.102 19.89-4.973 0-126.8-32.322-171.554-141.718-2.483 4.974-27.346-44.752 2.489-77.074z"/></g></svg>