<svg id="Layer_1" xmlns="http://www.w3.org/2000/svg" viewBox="0 0 200 204"><style>.st0{enable-background:new}.st1{fill:#313944}.st2{fill:#fff}.st3{display:none}.st4{display:inline}.st5{fill:#afb6bb}.st6{fill:#a7c5d8}.st7{fill:#e7eced}.st8{fill:#28384c}.st9{fill:#b2dadc}.st10{fill:#e5ba2e}.st11{fill:#c6e2f7}.st12{fill:#8cabba}.st13{fill:#dd352e}</style><g class="st0"><path class="st1" d="M99.7 197.4c-52.9 0-96-43.1-96-96s43.1-96 96-96 96 43.1 96 96-43.1 96-96 96z"/><path class="st2" d="M99.7 9c51.1 0 92.5 41.4 92.5 92.5S150.8 194 99.7 194 7.2 152.5 7.2 101.4 48.6 9 99.7 9m0-7C44.8 2 .2 46.6.2 101.4s44.6 99.5 99.5 99.5 99.5-44.6 99.5-99.5S154.5 2 99.7 2z"/></g><path class="st5" d="M109.8 71.8h33.5v12.6h-33.5z"/><path class="st6" d="M147.5 161.8c-1.3 0-2.1-.8-2.1-2.1v-8.4c0-1.3.8-2.1 2.1-2.1s2.1.8 2.1 2.1v8.4c0 1.3-.9 2.1-2.1 2.1z"/><path class="st6" d="M151.7 161.8h-8.4c-1.3 0-2.1-.8-2.1-2.1s.8-2.1 2.1-2.1h8.4c1.3 0 2.1.8 2.1 2.1s-.9 2.1-2.1 2.1zm-100.6 0c-1.3 0-2.1-.8-2.1-2.1v-8.4c0-1.3.8-2.1 2.1-2.1s2.1.8 2.1 2.1v8.4c0 1.3-.8 2.1-2.1 2.1z"/><path class="st6" d="M55.3 161.8H47c-1.3 0-2.1-.8-2.1-2.1s.8-2.1 2.1-2.1h8.4c1.3 0 2.1.8 2.1 2.1-.1 1.3-.9 2.1-2.2 2.1z"/><path class="st7" d="M151.7 153.5h-8.4c-1.3 0-2.1-.8-2.1-2.1V143c0-1.3.8-2.1 2.1-2.1h8.4c1.3 0 2.1.8 2.1 2.1v8.4c0 1.2-.9 2.1-2.1 2.1zm-96.4 0H47c-1.3 0-2.1-.8-2.1-2.1V143c0-1.3.8-2.1 2.1-2.1h8.4c1.3 0 2.1.8 2.1 2.1v8.4c-.1 1.2-.9 2.1-2.2 2.1zM80.5 55H63.7c-1.3 0-2.1-.8-2.1-2.1v-8.4c0-1.3.8-2.1 2.1-2.1h16.8c1.3 0 2.1.8 2.1 2.1v8.4c0 1.3-.9 2.1-2.1 2.1zm-14.7-4.2h12.6v-4.2H65.8v4.2z"/><path class="st8" d="M132.8 73.9h-12.6c-5.9 0-10.5-4.6-10.5-10.5 0-1.3.8-2.1 2.1-2.1h29.3c1.3 0 2.1.8 2.1 2.1.1 5.9-4.5 10.5-10.4 10.5z"/><path class="st8" d="M155.9 65.5h-14.7c-1.3 0-2.1-.8-2.1-2.1s.8-2.1 2.1-2.1h14.7c1.3 0 2.1.8 2.1 2.1s-.9 2.1-2.1 2.1z"/><path class="st9" d="M155.9 88.5H42.8c-2.3 0-4.2-1.9-4.2-4.2 0-2.3 1.9-4.2 4.2-4.2h113.1c2.3 0 4.2 1.9 4.2 4.2 0 2.4-1.9 4.2-4.2 4.2z"/><path class="st10" d="M42.8 88.5h113.1V143H42.8z"/><path class="st11" d="M93 96.9h54.5v37.7H93z"/><path class="st6" d="M93 109.5h54.5v25.1H93zm10.5-4.2c-1.3 0-2.1-.8-2.1-2.1V99c0-1.3.8-2.1 2.1-2.1s2.1.8 2.1 2.1v4.2c0 1.3-.8 2.1-2.1 2.1zm8.4 0c-1.3 0-2.1-.8-2.1-2.1V99c0-1.3.8-2.1 2.1-2.1s2.1.8 2.1 2.1v4.2c0 1.3-.9 2.1-2.1 2.1zm8.4 0c-1.3 0-2.1-.8-2.1-2.1V99c0-1.3.8-2.1 2.1-2.1s2.1.8 2.1 2.1v4.2c0 1.3-.9 2.1-2.1 2.1zm8.3 0c-1.3 0-2.1-.8-2.1-2.1V99c0-1.3.8-2.1 2.1-2.1s2.1.8 2.1 2.1v4.2c0 1.3-.8 2.1-2.1 2.1zm8.4 0c-1.3 0-2.1-.8-2.1-2.1V99c0-1.3.8-2.1 2.1-2.1s2.1.8 2.1 2.1v4.2c0 1.3-.8 2.1-2.1 2.1z"/><path class="st12" d="M128.6 124.1h-16.8c-1.3 0-2.1-.8-2.1-2.1v-4.2c0-1.3.8-2.1 2.1-2.1s2.1.8 2.1 2.1v2.1h12.6v-2.1c0-1.3.8-2.1 2.1-2.1s2.1.8 2.1 2.1v4.2c0 1.3-.8 2.1-2.1 2.1z"/><path class="st7" d="M55.3 59.2h33.5v20.9H55.3z"/><path class="st5" d="M93 59.2H51.1v-1.9c0-3.6 2.9-6.5 6.5-6.5h28.7c3.8 0 6.7 2.9 6.7 6.5v1.9z"/><path class="st7" d="M51.1 96.9H72v37.7H51.1z"/><path class="st5" d="M72.1 96.9H93v37.7H72.1zM59.5 120c-1.3 0-2.1-.8-2.1-2.1v-4.2c0-1.3.8-2.1 2.1-2.1h4.2c1.3 0 2.1.8 2.1 2.1s-.8 2.1-2.1 2.1h-2.1v2.1c0 1.2-.8 2.1-2.1 2.1z"/><path class="st2" d="M84.7 120c-1.3 0-2.1-.8-2.1-2.1v-2.1h-2.1c-1.3 0-2.1-.8-2.1-2.1s.8-2.1 2.1-2.1h4.2c1.3 0 2.1.8 2.1 2.1v4.2c0 1.2-.9 2.1-2.1 2.1z"/><path class="st13" d="M120.3 57.1c-.6 0-1-.2-1.5-.6-3.4-3.4-3.4-5.9 0-9.2 1.7-1.7 1.7-1.7 0-3.4-.8-.8-.8-2.1 0-2.9.8-.8 2.1-.8 2.9 0 3.4 3.4 3.4 5.9 0 9.2-1.7 1.7-1.7 1.7 0 3.4.8.8.8 2.1 0 2.9-.4.4-.8.6-1.4.6zm14.6 0c-.6 0-1-.2-1.5-.6-3.4-3.4-3.4-5.9 0-9.2 1.7-1.7 1.7-1.7 0-3.4-.8-.8-.8-2.1 0-2.9.8-.8 2.1-.8 2.9 0 3.4 3.4 3.4 5.9 0 9.2-1.7 1.7-1.7 1.7 0 3.4.8.8.8 2.1 0 2.9-.3.4-.7.6-1.4.6z"/></svg>