<svg id="Departments_1_" xmlns="http://www.w3.org/2000/svg" viewBox="0 0 200 204"><style>.st0{fill:#313944}.st1{fill:#fff}.st2{fill:#b9785f}.st3{fill:#aa6455}.st4{fill:#b4e1fa}.st5{fill:#daf0fd}.st6{fill:#d2555a}.st7{fill:#c7cfe2}.st8{fill:#ff6464}.st9{fill:#eff2fa}.st10{opacity:.97}.st11{fill:#afb9d2}.st12{fill:#5b5d6e}.st13{fill:#a0d2f0}</style><path class="st0" d="M100 196.7c-53 0-96.2-43.1-96.2-96.2C3.8 47.5 47 4.3 100 4.3s96.2 43.1 96.2 96.2c0 53-43.2 96.2-96.2 96.2z"/><path class="st1" d="M100 8.3c50.9 0 92.2 41.3 92.2 92.2s-41.3 92.2-92.2 92.2-92.2-41.3-92.2-92.2S49.1 8.3 100 8.3m0-8C44.8.3-.2 45.3-.2 100.5s45 100.2 100.2 100.2 100.2-44.9 100.2-100.2S155.2.3 100 .3z"/><g id="Layer_27_xA0_Изображение_1_"><path class="st2" d="M154.1 145.5H48.9V53.9c0-1.1.9-1.9 1.9-1.9h101.3c1.1 0 1.9.9 1.9 1.9v91.6h.1z"/><path class="st3" d="M154.1 83c-.4.1-.8.2-1.2.2-2.8 0-5.1-2.3-5.1-5.1 0 2.8-2.3 5.1-5.1 5.1s-5.1-2.3-5.1-5.1c0 2.8-2.3 5.1-5.1 5.1s-5.1-2.3-5.1-5.1c0 2.8-2.3 5.1-5.1 5.1s-5.1-2.3-5.1-5.1c0 2.8-2.3 5.1-5.1 5.1s-5.1-2.3-5.1-5.1c0 2.8-2.3 5.1-5.1 5.1s-5.1-2.3-5.1-5.1c0 2.8-2.3 5.1-5.1 5.1s-5.1-2.3-5.1-5.1c0 2.8-2.3 5.1-5.1 5.1s-5.1-2.3-5.1-5.1c0 2.8-2.3 5.1-5.1 5.1s-5.1-2.3-5.1-5.1c0 2.8-2.3 5.1-5.1 5.1S56 80.9 56 78.1c0 2.8-2.3 5.1-5.1 5.1-.4 0-.8-.1-1.2-.2v3.9c.4.1.8.1 1.2.1 1.9 0 3.7-.6 5.1-1.6 1.5 1 3.2 1.6 5.1 1.6 1.9 0 3.7-.6 5.1-1.6 1.5 1 3.2 1.6 5.1 1.6s3.7-.6 5.1-1.6c1.5 1 3.2 1.6 5.1 1.6s3.7-.6 5.1-1.6c1.5 1 3.2 1.6 5.1 1.6s3.7-.6 5.1-1.6c1.5 1 3.2 1.6 5.1 1.6s3.7-.6 5.1-1.6c1.5 1 3.2 1.6 5.1 1.6s3.7-.6 5.1-1.6c1.5 1 3.2 1.6 5.1 1.6s3.7-.6 5.1-1.6c1.5 1 3.2 1.6 5.1 1.6s3.7-.6 5.1-1.6c1.5 1 3.2 1.6 5.1 1.6 1.9 0 3.7-.6 5.1-1.6 1.5 1 3.2 1.6 5.1 1.6.4 0 .8-.1 1.2-.1V83z"/><path class="st4" d="M58.6 91h54.6v35.1H58.6z"/><path class="st5" d="M103.4 124.1h-3.8L76.2 92.9h3.9z"/><path class="st6" d="M91.2 83.2c-2.8 0-5.1-2.3-5.1-5.1v-4.6h10.3V78c0 2.9-2.3 5.2-5.2 5.2zm20.6 0c-2.8 0-5.1-2.3-5.1-5.1v-4.6H117V78c-.1 2.9-2.4 5.2-5.2 5.2zm-41.1 0c-2.8 0-5.1-2.3-5.1-5.1v-4.6h10.3V78c-.1 2.9-2.4 5.2-5.2 5.2zm-20.6 0c-2.8 0-5.1-2.3-5.1-5.1v-4.6h10.3V78c0 2.9-2.3 5.2-5.2 5.2zm82.2 0c-2.8 0-5.1-2.3-5.1-5.1v-4.6h10.3V78c0 2.9-2.3 5.2-5.2 5.2z"/><path class="st7" d="M81 83.2c-2.8 0-5.1-2.3-5.1-5.1v-4.6h10.3V78c-.1 2.9-2.4 5.2-5.2 5.2zm41 0c-2.8 0-5.1-2.3-5.1-5.1v-4.6h10.3V78c0 2.9-2.3 5.2-5.2 5.2z"/><path class="st6" d="M152.9 83.2c-2.8 0-5.1-2.3-5.1-5.1v-4.6H158V78c0 2.9-2.3 5.2-5.1 5.2z"/><path class="st7" d="M142.6 83.2c-2.8 0-5.1-2.3-5.1-5.1v-4.6h10.3V78c-.1 2.9-2.4 5.2-5.2 5.2zm-82.2 0c-2.8 0-5.1-2.3-5.1-5.1v-4.6h10.3V78c-.1 2.9-2.4 5.2-5.2 5.2zm41.1 0c-2.8 0-5.1-2.3-5.1-5.1v-4.6h10.3V78c-.1 2.9-2.4 5.2-5.2 5.2z"/><path class="st8" d="M96.4 73.4H86.1l1.1-15.6h9.5zm20.5 0h-10.3l-.3-15.6h9.5zm-41.1 0H65.5L68 57.8h9.6zm-20.5 0H45l3.9-15.6h9.6zm82.2 0h-10.3l-1.8-15.6h9.6z"/><path class="st9" d="M86.1 73.4H75.8l1.8-15.6h9.6zm41.1 0h-10.3l-1.1-15.6h9.6z"/><path class="st8" d="M158 73.4h-10.3l-3.2-15.6h9.6z"/><path class="st9" d="M147.7 73.4h-10.2L135 57.8h9.5zm-82.2 0H55.3l3.2-15.6H68zm41.1 0H96.4l.3-15.6h9.6z"/><path class="st7" d="M156.1 147.5H46.9c-1.1 0-1.9-.9-1.9-1.9 0-1.1.9-1.9 1.9-1.9H156c1.1 0 1.9.9 1.9 1.9.1 1-.8 1.9-1.8 1.9z"/><g class="st10"><path class="st11" d="M48.9 139.7h105.2v3.9H48.9z"/></g><path class="st3" d="M48.9 131.9h105.2v7.8H48.9z"/><path class="st12" d="M111.2 92.9v31.2H60.6V92.9h50.6m2-3.9H58.6c-1.1 0-1.9.9-1.9 1.9V126c0 1.1.9 1.9 1.9 1.9h54.6c1.1 0 1.9-.9 1.9-1.9V91c0-1.1-.8-2-1.9-2zm31.2 0h-19.5c-1.1 0-1.9.9-1.9 1.9v48.7h23.4V91c-.1-1.1-1-2-2-2z"/><path class="st4" d="M126.8 92.9h15.6v31.2h-15.6z"/><path class="st13" d="M60.6 92.9h50.7v3.9H60.6z"/><path id="SVGCleanerId_0" class="st13" d="M126.8 92.9h15.6v3.9h-15.6z"/><path class="st13" d="M95.7 124.1h-7.8L64.5 92.9h7.8z"/><path class="st4" d="M83 96.8l-2.9-3.9h-3.9l2.9 3.9z"/><path class="st5" d="M142.4 108.5l-11.7-15.6h-3.9l15.6 20.8z"/><path class="st4" d="M133.6 96.8l-2.9-3.9h-3.9l2.9 3.9z"/><path id="SVGCleanerId_0_1_" class="st13" d="M126.8 92.9h15.6v3.9h-15.6z"/><path class="st5" d="M142.4 108.5l-11.7-15.6h-3.9l15.6 20.8z"/><path class="st13" d="M126.8 98.1v10.4l11.7 15.6h3.9v-5.2z"/></g></svg>