<svg xmlns="http://www.w3.org/2000/svg" viewBox="0 0 496 496"><path fill="#daeaef" d="M0 56h496v384H0z"/><path fill="#c7e0e5" d="M496 440L124.8 321.6 0 56h496z"/><g opacity=".5"><path fill="#1ea4c4" d="M8 248v25.6l24 28.8v-25.6z"/><path d="M8 312.8v25.6l24 28.8v-25.6zm0-129.6v25.6l24 28.8V212z" fill="#c42014"/><path fill="#1ea4c4" d="M32 432.8v-25.6L8 377.6v25.6z"/><path fill="#c42014" d="M8 59.2v19.2L32 108V82.4z"/><path d="M8 118.4V144l24 28.8v-25.6zm3.2 324.8z" fill="#1ea4c4"/></g><g opacity=".5"><path fill="#1ea4c4" d="M488 248v-25.6l-24-28.8v25.6z"/><path d="M488 183.2v-25.6l-24-28.8v25.6zm0 129.6v-25.6l-24-28.8V284z" fill="#c42014"/><path fill="#1ea4c4" d="M464 63.2v25.6l24 29.6V92.8z"/><path fill="#c42014" d="M488 439.2v-21.6L464 388v25.6z"/><path d="M488 377.6V352l-24-28.8v25.6zm-3.2-324.8z" fill="#1ea4c4"/></g><path d="M496 440L286.4 229.6c-21.6-21.6-56-21.6-77.6 0L0 440h496z" fill="#e8f9fc"/><path d="M286.4 229.6c-21.6-21.6-56-21.6-77.6 0l-35.2 35.2 35.2 35.2c21.6 21.6 56 21.6 77.6 0l35.2-35.2-35.2-35.2z" fill="#d1eff2"/><path d="M0 56l209.6 210.4c21.6 21.6 56 21.6 77.6 0L496 56H0z" fill="#fff"/><path fill="#e8f9fc" d="M286.4 266.4L496 56H224"/><path fill="#1ea4c4" d="M248 64h-25.6l-28.8 16h25.6z"/><path d="M183.2 64h-25.6l-28.8 16h25.6zm129.6 0h-25.6l-28.8 16H284z" fill="#c42014"/><path fill="#1ea4c4" d="M63.2 80h25.6l29.6-16H92.8z"/><path fill="#c42014" d="M443.2 64h-25.6L388 80h25.6z"/><path d="M377.6 64H352l-28.8 16h25.6zM52.8 66.4zM248 432h25.6l28.8-16h-25.6z" fill="#1ea4c4"/><path d="M312.8 432h25.6l28.8-16h-25.6zm-129.6 0h25.6l28.8-16H212z" fill="#c42014"/><path fill="#1ea4c4" d="M432.8 416h-25.6l-29.6 16h25.6z"/><path fill="#c42014" d="M52.8 432h25.6l29.6-16H82.4z"/><path d="M118.4 432H144l28.8-16h-25.6zm324.8-2.4z" fill="#1ea4c4"/></svg>