<svg id="Layer_1" xmlns="http://www.w3.org/2000/svg" viewBox="0 0 200 204"><style>.st0{enable-background:new}.st1{fill:#313944}.st2{fill:#fff}.st3{display:none}.st4{display:inline}.st5{fill:#e6e2e0}.st5,.st6,.st7,.st8,.st9{fill-rule:evenodd;clip-rule:evenodd}.st6{fill:#d4cdca}.st7{fill:#7a7674}.st8{fill:#f8b326}.st9{fill:#fffde8}</style><g class="st0"><path class="st1" d="M99.7 197.4c-52.9 0-96-43.1-96-96s43.1-96 96-96 96 43.1 96 96-43.1 96-96 96z"/><path class="st2" d="M99.7 9c51.1 0 92.5 41.4 92.5 92.5S150.8 194 99.7 194 7.2 152.5 7.2 101.4 48.6 9 99.7 9m0-7C44.8 2 .2 46.6.2 101.4s44.6 99.5 99.5 99.5 99.5-44.6 99.5-99.5S154.5 2 99.7 2z"/></g><path class="st5" d="M49 39.5v122.4h76.1l25.2-23.9V39.5z" id="Rectangle_1"/><path class="st6" d="M125.1 138v23.9l25.2-23.9z" id="Rectangle_2"/><path class="st7" d="M95.5 64.8h42.2v8.4H95.5z" id="Rectangle_3"/><path class="st7" d="M95.5 95.6h42.2v8.4H95.5z" id="Rectangle_3_copy"/><path class="st7" d="M95.5 125.4h42.2v8.4H95.5z" id="Rectangle_3_copy_2"/><ellipse class="st8" cx="74.1" cy="68.7" rx="11.9" ry="11.9" id="Ellipse_2_copy_9"/><path class="st9" d="M80.8 65.3L79.7 64c-.2-.2-.4-.2-.6-.2-.2 0-.4.1-.6.2l-5.6 5.8-2.5-2.6c-.2-.2-.4-.2-.6-.2-.2 0-.4.1-.6.2L68 68.4c-.2.2-.2.4-.2.6 0 .2.1.4.2.6l3.1 3.2 1.2 1.2c.2.2.4.2.6.2.2 0 .4-.1.6-.2l1.2-1.2 6.2-6.4c.2-.2.2-.4.2-.6 0-.2-.1-.4-.3-.5z" id="Forma_1_copy_8"/><ellipse class="st8" cx="74.1" cy="99.5" rx="11.9" ry="12" id="Ellipse_2_copy_10"/><path class="st9" d="M80.8 96l-1.2-1.2c-.2-.2-.4-.2-.6-.2-.2 0-.4.1-.6.2l-5.6 5.8-2.4-2.6c-.2-.2-.4-.2-.6-.2-.2 0-.4.1-.6.2L68 99.2c-.2.2-.2.4-.2.6 0 .2.1.4.2.6l3.1 3.2 1.2 1.2c.2.2.4.2.6.2.2 0 .4-.1.6-.2l1.2-1.2 6.2-6.4c.2-.2.2-.4.2-.6 0-.2-.1-.4-.3-.6z" id="Forma_1_copy_9"/><ellipse class="st8" cx="74.1" cy="129.6" rx="11.9" ry="11.9" id="Ellipse_2_copy_11"/><path class="st9" d="M80.8 126.2l-1.2-1.2c-.2-.2-.4-.2-.6-.2-.2 0-.4.1-.6.2l-5.6 5.8-2.5-2.6c-.2-.2-.4-.2-.6-.2-.2 0-.4.1-.6.2l-1.2 1.2c-.2.2-.2.4-.2.6 0 .2.1.4.2.6l3.1 3.2 1.2 1.2c.2.2.4.2.6.2.2 0 .4-.1.6-.2l1.2-1.2 6.2-6.4c.2-.2.2-.4.2-.6.1-.2 0-.4-.2-.6z" id="Forma_1_copy_10"/></svg>